HIERARCHY
ROOT Hips
{
	OFFSET	0.000000	0.000000	0.000000
	CHANNELS 6 Xposition Yposition Zposition Zrotation Xrotation Yrotation
	JOINT LeftHip
	{
		OFFSET	4.740440	-3.195970	-0.322709
		CHANNELS 3 Zrotation Xrotation Yrotation
		JOINT LeftKnee
		{
			OFFSET	-1.605680	-15.592300	1.005510
			CHANNELS 3 Zrotation Xrotation Yrotation
			JOINT LeftAnkle
			{
				OFFSET	-0.632401	-16.421000	-1.413730
				CHANNELS 3 Zrotation Xrotation Yrotation
				End Site
				{
					OFFSET	0.008423	-3.933000	-1.776750
				}
			}
		}
	}
	JOINT RightHip
	{
		OFFSET	-4.740440	-3.195970	-0.322709
		CHANNELS 3 Zrotation Xrotation Yrotation
		JOINT RightKnee
		{
			OFFSET	1.605680	-15.592300	1.005510
			CHANNELS 3 Zrotation Xrotation Yrotation
			JOINT RightAnkle
			{
				OFFSET	0.632401	-16.421000	-1.413730
				CHANNELS 3 Zrotation Xrotation Yrotation
				End Site
				{
					OFFSET	-0.008423	-3.933000	-1.776750
				}
			}
		}
	}
	JOINT Chest
	{
		OFFSET	0.000000	3.468200	0.078401
		CHANNELS 3 Zrotation Xrotation Yrotation
		JOINT LeftCollar
		{
			OFFSET	3.857650	15.070700	-0.011583
			CHANNELS 3 Zrotation Xrotation Yrotation
			JOINT LeftShoulder
			{
				OFFSET	3.979720	-1.940530	-0.165223
				CHANNELS 3 Zrotation Xrotation Yrotation
				JOINT LeftElbow
				{
					OFFSET	0.615844	-10.986600	-0.673886
					CHANNELS 3 Zrotation Xrotation Yrotation
					JOINT LeftWrist
					{
						OFFSET	0.826843	-10.854500	1.034220
						CHANNELS 3 Zrotation Xrotation Yrotation
						End Site
						{
							OFFSET	-1.679080	-8.456540	0.936217
						}
					}
				}
			}
		}
		JOINT RightCollar
		{
			OFFSET	-3.857650	15.070700	-0.011583
			CHANNELS 3 Zrotation Xrotation Yrotation
			JOINT RightShoulder
			{
				OFFSET	-3.979720	-1.940530	-0.165223
				CHANNELS 3 Zrotation Xrotation Yrotation
				JOINT RightElbow
				{
					OFFSET	-0.615845	-10.986600	-0.673886
					CHANNELS 3 Zrotation Xrotation Yrotation
					JOINT RightWrist
					{
						OFFSET	-0.826843	-10.854500	1.034220
						CHANNELS 3 Zrotation Xrotation Yrotation
						End Site
						{
							OFFSET	1.679080	-8.456540	0.936217
						}
					}
				}
			}
		}
		JOINT Neck
		{
			OFFSET	0.000000	15.101400	0.055730
			CHANNELS 3 Zrotation Xrotation Yrotation
			JOINT Head
			{
				OFFSET	0.000000	4.185120	1.488260
				CHANNELS 3 Zrotation Xrotation Yrotation
				End Site
				{
					OFFSET	0.000000	7.773420	-0.106016
				}
			}
		}
	}
}
MOTION
Frames:     18
Frame Time: 0.016667
-4.455331	38.582260	-5.249506	3.714303	-11.457625	-9.324109	-0.158319	8.503506	1.599820	-2.482999	7.407409	13.876084	0.774649	-5.003801	5.338082	-18.906662	-5.238960	-5.560356	-0.651654	17.575512	-5.547219	12.370367	-1.050797	5.451825	-5.883365	12.164029	-1.071262	-3.300360	1.927468	5.775993	2.853181	-1.849380	3.086687	-2.625491	-5.845407	-1.242695	3.175187	1.788466	-16.802025	-3.721833	-0.603853	3.985095	1.478615	-4.457959	1.992701	-2.805338	1.800925	-0.776788	-4.522424	-2.181044	0.946317	-3.331408	2.563723	-3.139856	0.499207	1.315617	-11.229299	
-4.460708	38.578587	-5.233871	3.758801	-11.471304	-9.234068	-0.186597	8.524293	1.573980	-2.491141	7.418294	13.813951	0.802224	-5.024008	5.334913	-18.971828	-5.177004	-5.587476	-0.623129	17.546745	-5.576155	12.372661	-1.054037	5.430034	-5.917814	12.200261	-1.058712	-3.293525	1.913894	5.684895	2.864165	-1.843851	3.172806	-2.689292	-6.151188	-1.369157	3.148710	1.859537	-16.719097	-3.753057	-0.637023	3.935671	1.527882	-4.432592	2.083858	-2.828359	1.795896	-0.722181	-4.540808	-2.182005	1.108987	-3.319408	2.522589	-3.242745	0.411401	1.483138	-11.253593	
-4.462681	38.577358	-5.228540	3.774217	-11.476000	-9.202902	-0.196110	8.532284	1.568264	-2.493556	7.420858	13.789219	0.810542	-5.030601	5.334124	-19.008503	-5.151263	-5.546792	-0.582933	17.534216	-5.637353	12.373702	-1.055488	5.419934	-5.937620	12.206120	-1.051680	-3.304086	1.931116	5.674352	2.891712	-1.854898	3.241717	-2.716052	-6.276912	-1.472073	3.073024	1.698121	-16.650660	-3.783441	-0.654849	3.951034	1.569609	-4.413873	2.074884	-2.837199	1.794040	-0.693403	-4.535437	-2.183041	1.156565	-3.307063	2.516319	-3.275095	0.386874	1.530132	-11.263373	
-4.469570	38.574806	-5.206463	3.823986	-11.463775	-9.067419	-0.217759	8.537316	1.517596	-2.499106	7.420238	13.706538	0.833710	-5.049198	5.332037	-19.083820	-5.114580	-5.608928	-0.543218	17.522224	-5.705794	12.373702	-1.055488	5.419934	-5.991486	12.195622	-1.080924	-3.321318	1.974031	5.663945	2.948587	-1.889575	3.253770	-2.841376	-6.637513	-1.609399	3.115337	1.723453	-16.586948	-3.771046	-0.635376	3.929544	1.600080	-4.413806	2.150308	-2.861712	1.789209	-0.657313	-4.523270	-2.119801	1.271432	-3.266227	2.505995	-3.365608	0.319288	1.659459	-11.290112	
-4.471289	38.575481	-5.198977	3.822608	-11.462578	-9.024655	-0.207658	8.547616	1.507533	-2.500057	7.417178	13.670799	0.841216	-5.055168	5.331355	-19.093298	-5.106156	-5.625637	-0.528504	17.527884	-5.732056	12.373702	-1.055488	5.419934	-5.991907	12.197911	-1.092577	-3.328684	1.991517	5.654375	2.969516	-1.903400	3.275601	-2.862139	-6.783251	-1.662512	3.028985	1.534049	-16.522741	-3.786854	-0.633435	3.959659	1.625826	-4.412755	2.126274	-2.868032	1.788020	-0.639854	-4.492043	-2.124613	1.294040	-3.253267	2.503357	-3.394685	0.315576	1.671118	-11.291830	
-4.473148	38.576897	-5.181039	3.813295	-11.457717	-8.926997	-0.179442	8.558712	1.451318	-2.508856	7.428665	13.620489	0.864480	-5.077443	5.330452	-19.092001	-5.076797	-5.721152	-0.528504	17.527884	-5.732056	12.373702	-1.055488	5.419934	-5.989317	12.201818	-1.111853	-3.336494	2.028043	5.618478	3.011490	-1.968779	3.246998	-2.951204	-7.205574	-1.715304	2.995081	1.638251	-16.471867	-3.773995	-0.607174	3.960680	1.641964	-4.426156	2.132181	-2.884145	1.785696	-0.573842	-4.439893	-2.100405	1.425698	-3.221262	2.505561	-3.470023	0.283164	1.730739	-11.304239	
-4.474126	38.577217	-5.173472	3.811362	-11.456471	-8.894234	-0.170447	8.567091	1.447127	-2.512065	7.431545	13.588230	0.872399	-5.088057	5.331124	-19.092745	-5.066841	-5.752907	-0.528504	17.527884	-5.732056	12.373702	-1.055488	5.419934	-5.981411	12.204293	-1.142233	-3.352990	2.041543	5.633782	3.036609	-2.011761	3.258628	-2.981590	-7.336297	-1.756626	2.959915	1.629642	-16.455238	-3.786204	-0.585910	4.040765	1.652231	-4.446577	2.092261	-2.891281	1.784161	-0.559283	-4.450132	-2.090165	1.440517	-3.219843	2.505810	-3.473193	0.256766	1.777529	-11.313964	
-4.479434	38.576324	-5.160655	3.834105	-11.462405	-8.804008	-0.174255	8.588438	1.434033	-2.513576	7.426563	13.510440	0.886127	-5.097096	5.329280	-19.128164	-5.039965	-5.815320	-0.517658	17.532059	-5.751483	12.373702	-1.055488	5.419934	-5.985959	12.215648	-1.229186	-3.399574	2.070568	5.700477	3.105740	-2.123130	3.298729	-3.133137	-7.754331	-1.913671	2.946356	1.583145	-16.387775	-3.802257	-0.562369	4.136179	1.665197	-4.468943	2.051335	-2.904988	1.783090	-0.465735	-4.350255	-2.070617	1.498765	-3.219843	2.505810	-3.473193	0.244617	1.799674	-11.318424	
-4.480147	38.575287	-5.155393	3.845009	-11.465617	-8.782057	-0.180689	8.594944	1.433332	-2.517318	7.432521	13.488663	0.888455	-5.107799	5.331919	-19.145966	-5.035452	-5.816175	-0.507277	17.536148	-5.770166	12.373702	-1.055488	5.419934	-5.992785	12.219246	-1.249153	-3.407126	2.069908	5.729608	3.121479	-2.150481	3.301831	-3.171696	-7.884007	-1.961118	2.925753	1.576737	-16.375059	-3.810179	-0.554381	4.174660	1.672456	-4.476348	2.039759	-2.909666	1.782858	-0.451910	-4.318802	-2.074551	1.521777	-3.219843	2.505810	-3.473193	0.230631	1.823884	-11.323566	
-4.481245	38.575275	-5.154200	3.846351	-11.466058	-8.779029	-0.179713	8.600857	1.452751	-2.516715	7.428584	13.465597	0.888618	-5.108539	5.332121	-19.154512	-5.038658	-5.795660	-0.493354	17.541367	-5.794945	12.373702	-1.055488	5.419934	-5.943976	12.269283	-1.242887	-3.462222	2.013584	5.761420	3.151599	-2.235092	3.279422	-3.302885	-8.234205	-2.043973	2.919155	1.528770	-16.316929	-3.864153	-0.595193	4.187459	1.683712	-4.479856	2.078428	-2.921514	1.781824	-0.433283	-4.354041	-2.063753	1.581916	-3.265473	2.457125	-3.490974	0.219087	1.824319	-11.309843	
-4.481245	38.575275	-5.154200	3.846351	-11.466058	-8.779029	-0.179713	8.600857	1.452751	-2.516715	7.428584	13.465597	0.888618	-5.108539	5.332121	-19.158527	-5.041314	-5.782119	-0.485261	17.544529	-5.809486	12.373702	-1.055488	5.419934	-5.926903	12.286341	-1.239782	-3.478259	1.996610	5.753635	3.158532	-2.256532	3.298751	-3.345019	-8.348157	-2.079982	2.906550	1.528412	-16.338331	-3.880546	-0.612112	4.179560	1.686501	-4.477770	2.103158	-2.926425	1.781565	-0.411078	-4.382565	-2.055309	1.549388	-3.279228	2.442095	-3.485289	0.202779	1.829435	-11.253901	
-4.482230	38.575634	-5.152012	3.846774	-11.465792	-8.759331	-0.175706	8.604937	1.450258	-2.515908	7.425049	13.447720	0.888618	-5.108539	5.332121	-19.171150	-5.041930	-5.765548	-0.463990	17.552605	-5.847394	12.373702	-1.055488	5.419934	-5.873297	12.337667	-1.250764	-3.524954	1.947221	5.730942	3.172707	-2.316334	3.305866	-3.436715	-8.657674	-2.132815	2.826426	1.479131	-16.418201	-3.928277	-0.661340	4.156532	1.694554	-4.471745	2.174226	-2.939369	1.781597	-0.365243	-4.416052	-2.043249	1.509554	-3.323103	2.394974	-3.491835	0.185158	1.824598	-11.239891	
-4.482472	38.575890	-5.150195	3.848001	-11.465802	-8.736899	-0.173538	8.604834	1.427816	-2.515908	7.425049	13.447720	0.888618	-5.108539	5.332121	-19.177305	-5.036802	-5.776274	-0.457752	17.554991	-5.858538	12.373702	-1.055488	5.419934	-5.851541	12.357832	-1.270116	-3.541966	1.929248	5.722682	3.178152	-2.339785	3.307506	-3.480109	-8.762960	-2.152705	2.817655	1.487600	-16.438383	-3.945667	-0.679255	4.148150	1.694972	-4.471458	2.177391	-2.941359	1.782023	-0.340040	-4.464832	-2.032720	1.509186	-3.339094	2.382727	-3.491573	0.170379	1.825838	-11.181263	
-4.484903	38.573708	-5.141555	3.879891	-11.475171	-8.669966	-0.194547	8.616309	1.393616	-2.518887	7.428942	13.418107	0.890819	-5.118619	5.334573	-19.214983	-5.012839	-5.830765	-0.459066	17.554379	-5.842987	12.375423	-1.057920	5.403627	-5.852390	12.386791	-1.328041	-3.571926	1.909283	5.765424	3.204844	-2.410927	3.261654	-3.651269	-9.089097	-2.228799	2.882598	1.530917	-16.493462	-3.967699	-0.674593	4.205867	1.692593	-4.496467	2.111623	-2.944075	1.782929	-0.292973	-4.466899	-2.029397	1.463743	-3.345727	2.388320	-3.427973	0.153236	1.810688	-11.183217	
-4.486190	38.573006	-5.139138	3.892028	-11.478746	-8.645532	-0.202490	8.621247	1.383791	-2.518626	7.427111	13.405123	0.890977	-5.119375	5.334787	-19.229050	-5.003944	-5.851059	-0.460328	17.553825	-5.833315	12.376393	-1.059253	5.394405	-5.847015	12.403600	-1.347983	-3.586804	1.895144	5.774037	3.211655	-2.430210	3.248582	-3.746589	-9.213635	-2.266694	2.929945	1.576017	-16.501148	-3.973708	-0.675952	4.212140	1.684488	-4.507702	2.099742	-2.944075	1.782929	-0.292973	-4.466899	-2.029397	1.463743	-3.350932	2.381602	-3.392474	0.112407	1.798865	-11.156179	
-4.488400	38.572414	-5.135951	3.906385	-11.468333	-8.625126	-0.209810	8.616231	1.395199	-2.517245	7.421146	13.375023	0.890977	-5.119375	5.334787	-19.243212	-5.009879	-5.871799	-0.447267	17.568821	-5.822275	12.365318	-1.078272	5.383238	-5.823105	12.425003	-1.361418	-3.614075	1.857713	5.768395	3.218654	-2.466839	3.242110	-3.839437	-9.297493	-2.302459	2.921072	1.470309	-16.541613	-3.985884	-0.677860	4.224217	1.667107	-4.533032	2.119871	-2.948197	1.781660	-0.338801	-4.466899	-2.029397	1.463743	-3.367429	2.361743	-3.325328	0.100473	1.803834	-11.151774	
-4.489620	38.571697	-5.133432	3.921172	-11.457799	-8.603991	-0.219209	8.605540	1.384057	-2.516900	7.419659	13.367491	0.890977	-5.119375	5.334787	-19.257833	-5.015762	-5.893208	-0.446125	17.577599	-5.815643	12.365034	-1.088400	5.378317	-5.812713	12.433076	-1.377892	-3.631773	1.839035	5.759761	3.218654	-2.466839	3.242110	-3.915264	-9.407605	-2.335480	2.965086	1.517318	-16.543015	-3.998632	-0.687928	4.223202	1.662062	-4.540363	2.124863	-2.949339	1.781329	-0.351171	-4.466899	-2.029397	1.463743	-3.377268	2.349964	-3.286800	0.112736	1.818759	-11.146369	
-4.491092	38.571442	-5.131710	3.927403	-11.458653	-8.591887	-0.221847	8.611390	1.396483	-2.515788	7.414880	13.343354	0.890977	-5.119375	5.334787	-19.264898	-5.012237	-5.903529	-0.443279	17.601587	-5.795458	12.364465	-1.116487	5.362924	-5.790429	12.459997	-1.384336	-3.656212	1.813247	5.747840	3.212557	-2.472205	3.174537	-3.929890	-9.453143	-2.281464	2.948603	1.445949	-16.566277	-4.032790	-0.663643	4.223567	1.670687	-4.572121	2.124126	-2.955368	1.763334	-0.333202	-4.484787	-2.025682	1.503509	-3.391904	2.332792	-3.239910	0.106013	1.829947	-11.107737	
